<svg xmlns="http://www.w3.org/2000/svg" viewBox="0 0 120 120" fill="none">
  <!-- Background circle -->
  <circle cx="60" cy="60" r="58" fill="#1a1a2e" stroke="#FF6B35" stroke-width="2"/>
  <!-- Mic body -->
  <path d="M60 24c-6.6 0-12 5.4-12 12v24c0 6.6 5.4 12 12 12s12-5.4 12-12V36c0-6.6-5.4-12-12-12z" fill="white"/>
  <!-- Mic arc/top -->
  <rect x="52" y="20" width="16" height="10" rx="8" fill="white"/>
  <!-- Mic base/stand top -->
  <path d="M60 72v12" stroke="white" stroke-width="4" stroke-linecap="round"/>
  <!-- Mic stand -->
  <line x1="46" y1="88" x2="74" y2="88" stroke="white" stroke-width="4" stroke-linecap="round"/>
  <line x1="60" y1="88" x2="60" y2="96" stroke="white" stroke-width="4" stroke-linecap="round"/>
  <!-- Sound waves -->
  <path d="M78 48c3 4 3 10 0 14" stroke="#FF6B35" stroke-width="2.5" stroke-linecap="round"/>
  <path d="M86 42c6 8 6 18 0 26" stroke="#FF6B35" stroke-width="2.5" stroke-linecap="round"/>
  <path d="M42 48c-3 4-3 10 0 14" stroke="#FF6B35" stroke-width="2.5" stroke-linecap="round"/>
  <path d="M34 42c-6 8-6 18 0 26" stroke="#FF6B35" stroke-width="2.5" stroke-linecap="round"/>
</svg>
